<svg width="16" height="16" viewBox="0 0 16 16" fill="none" xmlns="http://www.w3.org/2000/svg">
<g clip-path="url(#clip0_201_86)">
<path d="M7.75293 9.57837C8.09668 9.57837 8.39105 9.45587 8.63605 9.21087C8.88105 8.96587 9.00335 8.6717 9.00293 8.32837C9.00293 7.98462 8.88043 7.69024 8.63543 7.44524C8.39043 7.20024 8.09626 7.07795 7.75293 7.07837C7.40918 7.07837 7.1148 7.20087 6.8698 7.44587C6.6248 7.69087 6.50251 7.98504 6.50293 8.32837C6.50293 8.67212 6.62543 8.96649 6.87043 9.21149C7.11543 9.45649 7.4096 9.57879 7.75293 9.57837ZM7.75293 14.1721C9.02376 13.0055 9.96647 11.9455 10.5811 10.9921C11.1956 10.0388 11.5029 9.19254 11.5029 8.45337C11.5029 7.31795 11.1408 6.38837 10.4167 5.66462C9.69251 4.94087 8.8046 4.57879 7.75293 4.57837C6.70085 4.57837 5.81272 4.94045 5.08855 5.66462C4.36439 6.38879 4.00251 7.31837 4.00293 8.45337C4.00293 9.19295 4.31022 10.0394 4.9248 10.9927C5.53939 11.9461 6.4821 13.0059 7.75293 14.1721ZM7.75293 15.8284C6.07585 14.4013 4.82335 13.0759 3.99543 11.8521C3.16751 10.6284 2.75335 9.49545 2.75293 8.45337C2.75293 6.89087 3.25564 5.64608 4.26105 4.71899C5.26647 3.79191 6.43043 3.32837 7.75293 3.32837C9.07585 3.32837 10.24 3.79191 11.2454 4.71899C12.2508 5.64608 12.7533 6.89087 12.7529 8.45337C12.7529 9.49504 12.3388 10.628 11.5104 11.8521C10.6821 13.0763 9.4296 14.4017 7.75293 15.8284Z" fill="#F8F8F8"/>
</g>
<defs>
<clipPath id="clip0_201_86">
<rect width="15" height="15" fill="white" transform="translate(0.25293 0.828369)"/>
</clipPath>
</defs>
</svg>
