<svg width="16" height="16" viewBox="0 0 16 16" fill="none" xmlns="http://www.w3.org/2000/svg">
<path d="M13.3782 3.39575H2.12817C2.00385 3.39575 1.88463 3.44514 1.79672 3.53305C1.70881 3.62095 1.65942 3.74018 1.65942 3.8645V11.8333C1.65942 12.0819 1.7582 12.3203 1.93401 12.4962C2.10983 12.672 2.34828 12.7708 2.59692 12.7708H12.9094C13.1581 12.7708 13.3965 12.672 13.5723 12.4962C13.7482 12.3203 13.8469 12.0819 13.8469 11.8333V3.8645C13.8469 3.74018 13.7975 3.62095 13.7096 3.53305C13.6217 3.44514 13.5025 3.39575 13.3782 3.39575ZM12.1729 4.33325L7.75317 8.38501L3.33345 4.33325H12.1729ZM12.9094 11.8333H2.59692V4.93032L7.43618 9.36645C7.52266 9.44584 7.63578 9.48989 7.75317 9.48989C7.87057 9.48989 7.98369 9.44584 8.07017 9.36645L12.9094 4.93032V11.8333Z" fill="white"/>
</svg>
