<svg width="25" height="25" viewBox="0 0 25 25" fill="none" xmlns="http://www.w3.org/2000/svg">
<path d="M12.1553 9.98985C11.3596 9.98985 10.5966 10.3059 10.034 10.8685C9.47134 11.4311 9.15527 12.1942 9.15527 12.9898C9.15527 13.7855 9.47134 14.5486 10.034 15.1112C10.5966 15.6738 11.3596 15.9898 12.1553 15.9898C12.9509 15.9898 13.714 15.6738 14.2766 15.1112C14.8392 14.5486 15.1553 13.7855 15.1553 12.9898C15.1553 12.1942 14.8392 11.4311 14.2766 10.8685C13.714 10.3059 12.9509 9.98985 12.1553 9.98985ZM12.1553 7.98985C13.4814 7.98985 14.7531 8.51663 15.6908 9.45431C16.6285 10.392 17.1553 11.6638 17.1553 12.9898C17.1553 14.3159 16.6285 15.5877 15.6908 16.5254C14.7531 17.4631 13.4814 17.9898 12.1553 17.9898C10.8292 17.9898 9.55742 17.4631 8.61974 16.5254C7.68206 15.5877 7.15527 14.3159 7.15527 12.9898C7.15527 11.6638 7.68206 10.392 8.61974 9.45431C9.55742 8.51663 10.8292 7.98985 12.1553 7.98985ZM18.6553 7.73985C18.6553 8.07137 18.5236 8.38931 18.2892 8.62373C18.0547 8.85815 17.7368 8.98985 17.4053 8.98985C17.0738 8.98985 16.7558 8.85815 16.5214 8.62373C16.287 8.38931 16.1553 8.07137 16.1553 7.73985C16.1553 7.40832 16.287 7.09038 16.5214 6.85596C16.7558 6.62154 17.0738 6.48985 17.4053 6.48985C17.7368 6.48985 18.0547 6.62154 18.2892 6.85596C18.5236 7.09038 18.6553 7.40832 18.6553 7.73985ZM12.1553 4.98985C9.68127 4.98985 9.27727 4.99685 8.12627 5.04785C7.34227 5.08485 6.81627 5.18985 6.32827 5.37985C5.91989 5.52978 5.55069 5.77011 5.24827 6.08285C4.93528 6.38524 4.69463 6.75443 4.54427 7.16285C4.35427 7.65285 4.24927 8.17785 4.21327 8.96085C4.16127 10.0648 4.15427 10.4508 4.15427 12.9898C4.15427 15.4648 4.16127 15.8678 4.21227 17.0188C4.24927 17.8018 4.35427 18.3288 4.54327 18.8158C4.71327 19.2508 4.91327 19.5638 5.24527 19.8958C5.58227 20.2318 5.89527 20.4328 6.32527 20.5988C6.81927 20.7898 7.34527 20.8958 8.12527 20.9318C9.22927 20.9838 9.61527 20.9898 12.1543 20.9898C14.6293 20.9898 15.0323 20.9828 16.1833 20.9318C16.9653 20.8948 17.4913 20.7898 17.9803 20.6008C18.3883 20.4502 18.7573 20.2099 19.0603 19.8978C19.3973 19.5618 19.5983 19.2488 19.7643 18.8178C19.9543 18.3258 20.0603 17.7998 20.0963 17.0178C20.1483 15.9148 20.1543 15.5278 20.1543 12.9898C20.1543 10.5158 20.1473 10.1118 20.0963 8.96085C20.0593 8.17885 19.9533 7.65085 19.7643 7.16285C19.6135 6.75486 19.3733 6.38583 19.0613 6.08285C18.759 5.76969 18.3898 5.52901 17.9813 5.37885C17.4913 5.18885 16.9653 5.08385 16.1833 5.04785C15.0803 4.99585 14.6953 4.98985 12.1553 4.98985ZM12.1553 2.98985C14.8723 2.98985 15.2113 2.99985 16.2783 3.04985C17.3423 3.09985 18.0683 3.26685 18.7053 3.51485C19.3653 3.76885 19.9213 4.11285 20.4773 4.66785C20.9858 5.16774 21.3792 5.77243 21.6303 6.43985C21.8773 7.07685 22.0453 7.80285 22.0953 8.86785C22.1423 9.93385 22.1553 10.2728 22.1553 12.9898C22.1553 15.7068 22.1453 16.0458 22.0953 17.1118C22.0453 18.1768 21.8773 18.9018 21.6303 19.5398C21.3799 20.2076 20.9864 20.8124 20.4773 21.3118C19.9772 21.8202 19.3726 22.2136 18.7053 22.4648C18.0683 22.7118 17.3423 22.8798 16.2783 22.9298C15.2113 22.9768 14.8723 22.9898 12.1553 22.9898C9.43827 22.9898 9.09927 22.9798 8.03227 22.9298C6.96827 22.8798 6.24327 22.7118 5.60527 22.4648C4.9376 22.2143 4.3328 21.8208 3.83327 21.3118C3.3247 20.812 2.93123 20.2073 2.68027 19.5398C2.43227 18.9028 2.26527 18.1768 2.21527 17.1118C2.16727 16.0458 2.15527 15.7068 2.15527 12.9898C2.15527 10.2728 2.16527 9.93385 2.21527 8.86785C2.26527 7.80185 2.43227 7.07785 2.68027 6.43985C2.93051 5.77202 3.32408 5.16717 3.83327 4.66785C4.33294 4.15908 4.9377 3.76557 5.60527 3.51485C6.24227 3.26685 6.96727 3.09985 8.03227 3.04985C9.09927 3.00285 9.43827 2.98985 12.1553 2.98985Z" fill="white"/>
</svg>
