<svg width="15" height="16" viewBox="0 0 15 16" fill="none" xmlns="http://www.w3.org/2000/svg">
<path d="M11.875 7.79712C11.875 6.57837 11.4504 5.54462 10.6013 4.69587C9.75208 3.84712 8.71833 3.42254 7.5 3.42212V2.17212C8.28125 2.17212 9.01313 2.32066 9.69563 2.61774C10.3781 2.91483 10.9719 3.31587 11.4769 3.82087C11.9819 4.32587 12.3829 4.91962 12.68 5.60212C12.9771 6.28462 13.1254 7.01629 13.125 7.79712H11.875ZM9.375 7.79712C9.375 7.27629 9.19271 6.83358 8.82813 6.46899C8.46354 6.10441 8.02083 5.92212 7.5 5.92212V4.67212C8.36458 4.67212 9.10167 4.97691 9.71125 5.58649C10.3208 6.19608 10.6254 6.93295 10.625 7.79712H9.375ZM12.4688 13.4534C11.125 13.4534 9.815 13.1538 8.53875 12.5546C7.2625 11.9555 6.13229 11.1638 5.14813 10.1796C4.16396 9.19545 3.37229 8.06524 2.77313 6.78899C2.17396 5.51274 1.87458 4.20295 1.875 2.85962C1.875 2.67212 1.9375 2.51587 2.0625 2.39087C2.1875 2.26587 2.34375 2.20337 2.53125 2.20337H5.0625C5.20833 2.20337 5.33854 2.25024 5.45313 2.34399C5.56771 2.43774 5.63542 2.55754 5.65625 2.70337L6.0625 4.89087C6.08333 5.0367 6.08063 5.16962 6.05438 5.28962C6.02813 5.40962 5.96833 5.51629 5.875 5.60962L4.375 7.14087C4.8125 7.89087 5.35938 8.59399 6.01563 9.25024C6.67188 9.90649 7.39583 10.4742 8.1875 10.9534L9.65625 9.48462C9.75 9.39087 9.8725 9.32066 10.0238 9.27399C10.175 9.22733 10.3233 9.2142 10.4688 9.23462L12.625 9.67212C12.7708 9.70337 12.8906 9.77379 12.9844 9.88337C13.0781 9.99295 13.125 10.1205 13.125 10.2659V12.7971C13.125 12.9846 13.0625 13.1409 12.9375 13.2659C12.8125 13.3909 12.6563 13.4534 12.4688 13.4534Z" fill="white"/>
</svg>
