<svg width="25" height="25" viewBox="0 0 25 25" fill="none" xmlns="http://www.w3.org/2000/svg">
<path d="M10.1543 15.9898L15.3443 12.9898L10.1543 9.98985V15.9898ZM21.7143 8.15985C21.8443 8.62985 21.9343 9.25985 21.9943 10.0598C22.0643 10.8598 22.0943 11.5498 22.0943 12.1498L22.1543 12.9898C22.1543 15.1798 21.9943 16.7898 21.7143 17.8198C21.4643 18.7198 20.8843 19.2998 19.9843 19.5498C19.5143 19.6798 18.6543 19.7698 17.3343 19.8298C16.0343 19.8998 14.8443 19.9298 13.7443 19.9298L12.1543 19.9898C7.9643 19.9898 5.3543 19.8298 4.3243 19.5498C3.4243 19.2998 2.8443 18.7198 2.5943 17.8198C2.4643 17.3498 2.3743 16.7198 2.3143 15.9198C2.2443 15.1198 2.2143 14.4298 2.2143 13.8298L2.1543 12.9898C2.1543 10.7998 2.3143 9.18985 2.5943 8.15985C2.8443 7.25985 3.4243 6.67985 4.3243 6.42985C4.7943 6.29985 5.6543 6.20985 6.9743 6.14985C8.2743 6.07985 9.4643 6.04985 10.5643 6.04985L12.1543 5.98985C16.3443 5.98985 18.9543 6.14985 19.9843 6.42985C20.8843 6.67985 21.4643 7.25985 21.7143 8.15985Z" fill="white"/>
</svg>
